<svg xmlns="http://www.w3.org/2000/svg" xmlns:xlink="http://www.w3.org/1999/xlink" width="2000" zoomAndPan="magnify" viewBox="0 0 1500 1499.999933" height="2000" preserveAspectRatio="xMidYMid meet" version="1.0"><defs><clipPath id="ddc8eb437b"><path d="M 111.941406 713.261719 L 403.5 713.261719 L 403.5 930.101562 L 111.941406 930.101562 Z M 111.941406 713.261719 " clip-rule="nonzero"/></clipPath><clipPath id="8d0821439e"><path d="M 0.941406 0.261719 L 292.5 0.261719 L 292.5 217.101562 L 0.941406 217.101562 Z M 0.941406 0.261719 " clip-rule="nonzero"/></clipPath><clipPath id="2132ecfd12"><rect x="0" width="293" y="0" height="218"/></clipPath><clipPath id="c8e4bf055e"><path d="M 392.289062 705.734375 L 628.972656 705.734375 L 628.972656 930.101562 L 392.289062 930.101562 Z M 392.289062 705.734375 " clip-rule="nonzero"/></clipPath><clipPath id="45f858e385"><path d="M 627.578125 930.101562 L 394.019531 930.101562 C 393.0625 930.101562 392.289062 929.324219 392.289062 928.371094 L 392.289062 706.585938 C 392.289062 706.289062 392.464844 706.019531 392.738281 705.902344 C 393.011719 705.785156 393.328125 705.839844 393.542969 706.046875 L 628.054688 928.90625 C 628.257812 929.101562 628.324219 929.402344 628.21875 929.664062 C 628.117188 929.929688 627.859375 930.101562 627.578125 930.101562 Z M 627.578125 930.101562 " clip-rule="nonzero"/></clipPath><clipPath id="568eae6dd4"><path d="M 0.289062 0.761719 L 236.359375 0.761719 L 236.359375 225.101562 L 0.289062 225.101562 Z M 0.289062 0.761719 " clip-rule="nonzero"/></clipPath><clipPath id="708255070f"><path d="M 235.578125 225.101562 L 2.019531 225.101562 C 1.0625 225.101562 0.289062 224.324219 0.289062 223.371094 L 0.289062 1.585938 C 0.289062 1.289062 0.464844 1.019531 0.738281 0.902344 C 1.011719 0.785156 1.328125 0.839844 1.542969 1.046875 L 236.054688 223.90625 C 236.257812 224.101562 236.324219 224.402344 236.21875 224.664062 C 236.117188 224.929688 235.859375 225.101562 235.578125 225.101562 Z M 235.578125 225.101562 " clip-rule="nonzero"/></clipPath><clipPath id="648f5d387c"><rect x="0" width="237" y="0" height="226"/></clipPath><clipPath id="d0523968bb"><path d="M 139.53125 776.957031 L 437.253906 776.957031 L 437.253906 930.101562 L 139.53125 930.101562 Z M 139.53125 776.957031 " clip-rule="nonzero"/></clipPath><clipPath id="6f34e3e46f"><path d="M 0.53125 0.957031 L 298.253906 0.957031 L 298.253906 154.101562 L 0.53125 154.101562 Z M 0.53125 0.957031 " clip-rule="nonzero"/></clipPath><clipPath id="7703f17152"><rect x="0" width="299" y="0" height="155"/></clipPath><clipPath id="bc5dcf29cd"><path d="M 0.519531 0.878906 L 1201 0.878906 L 1201 1218.878906 L 0.519531 1218.878906 Z M 0.519531 0.878906 " clip-rule="nonzero"/></clipPath><clipPath id="218a2f967f"><rect x="0" width="1201" y="0" height="1219"/></clipPath></defs><g transform="matrix(1, 0, 0, 1, 149, 140)"><g clip-path="url(#218a2f967f)"><g clip-path="url(#ddc8eb437b)"><g transform="matrix(1, 0, 0, 1, 111, 713)"><g clip-path="url(#2132ecfd12)"><g clip-path="url(#8d0821439e)"><path fill="#ffd514" d="M 0.941406 0.261719 L 292.316406 0.261719 L 292.316406 217.101562 L 0.941406 217.101562 Z M 0.941406 0.261719 " fill-opacity="1" fill-rule="nonzero"/></g></g></g></g><g clip-path="url(#c8e4bf055e)"><g clip-path="url(#45f858e385)"><g transform="matrix(1, 0, 0, 1, 392, 705)"><g clip-path="url(#648f5d387c)"><g clip-path="url(#568eae6dd4)"><g clip-path="url(#708255070f)"><path fill="#ffd514" d="M 0.289062 -0.148438 L 236.972656 -0.148438 L 236.972656 225.101562 L 0.289062 225.101562 Z M 0.289062 -0.148438 " fill-opacity="1" fill-rule="nonzero"/></g></g></g></g></g></g><g clip-path="url(#d0523968bb)"><g transform="matrix(1, 0, 0, 1, 139, 776)"><g clip-path="url(#7703f17152)"><g clip-path="url(#6f34e3e46f)"><path fill="#ffd514" d="M 0.53125 0.957031 L 298.441406 0.957031 L 298.441406 154.101562 L 0.53125 154.101562 Z M 0.53125 0.957031 " fill-opacity="1" fill-rule="nonzero"/></g></g></g></g><path stroke-linecap="round" transform="matrix(0, -7.007877, 7.007877, 0, 31.313509, 1162.198732)" fill="none" stroke-linejoin="miter" d="M 11.499825 11.49975 L 146.104494 11.49975 " stroke="#ffd514" stroke-width="23" stroke-opacity="1" stroke-miterlimit="4"/><path stroke-linecap="round" transform="matrix(0, 7.007877, -7.007877, 0, 1170.611432, 57.801065)" fill="none" stroke-linejoin="miter" d="M 11.499854 11.500188 L 146.104523 11.500188 " stroke="#35408e" stroke-width="23" stroke-opacity="1" stroke-miterlimit="4"/><g clip-path="url(#bc5dcf29cd)"><path stroke-linecap="round" transform="matrix(-4.911097, -4.999147, 4.999147, -4.911097, 1085.957895, 1218.688031)" fill="none" stroke-linejoin="miter" d="M 11.500323 11.499973 L 209.432371 11.500152 " stroke="#ffd514" stroke-width="23" stroke-opacity="1" stroke-miterlimit="4"/></g></g></g></svg>